HIERARCHY
ROOT root
{
	OFFSET 0.000000 0.000000 0.000000
	CHANNELS 6 Xposition Yposition Zposition Zrotation Yrotation Xrotation
	JOINT lhip
	{
		OFFSET 0.058581 -0.082280 -0.017664
		CHANNELS 3 Zrotation Yrotation Xrotation
		JOINT lknee
		{
			OFFSET 0.043451 -0.386469 0.008037
			CHANNELS 3 Zrotation Yrotation Xrotation
			JOINT lankle
			{
				OFFSET -0.014790 -0.426874 -0.037428
				CHANNELS 3 Zrotation Yrotation Xrotation
				JOINT ltoe
				{
					OFFSET 0.041054 -0.060286 0.122042
					CHANNELS 3 Zrotation Yrotation Xrotation
					End Site
					{
						OFFSET 0.000000 0.000000 0.000000
					}
				}
			}
		}
	}
	JOINT rhip
	{
		OFFSET -0.060310 -0.090513 -0.013543
		CHANNELS 3 Zrotation Yrotation Xrotation
		JOINT rknee
		{
			OFFSET -0.043257 -0.383688 -0.004843
			CHANNELS 3 Zrotation Yrotation Xrotation
			JOINT rankle
			{
				OFFSET 0.019056 -0.420046 -0.034562
				CHANNELS 3 Zrotation Yrotation Xrotation
				JOINT rtoe
				{
					OFFSET -0.034840 -0.062106 0.130323
					CHANNELS 3 Zrotation Yrotation Xrotation
					End Site
					{
						OFFSET 0.000000 0.000000 0.000000
					}
				}
			}
		}
	}
	JOINT lowerback
	{
		OFFSET 0.004439 0.124404 -0.038385
		CHANNELS 3 Zrotation Yrotation Xrotation
		JOINT upperback
		{
			OFFSET 0.004488 0.137956 0.026820
			CHANNELS 3 Zrotation Yrotation Xrotation
			JOINT chest
			{
				OFFSET -0.002265 0.056032 0.002855
				CHANNELS 3 Zrotation Yrotation Xrotation
				JOINT lowerneck
				{
					OFFSET -0.013390 0.211636 -0.033468
					CHANNELS 3 Zrotation Yrotation Xrotation
					JOINT upperneck
					{
						OFFSET 0.010113 0.088937 0.050410
						CHANNELS 3 Zrotation Yrotation Xrotation
						End Site
						{
							OFFSET 0.000000 0.000000 0.000000
						}
					}
				}
				JOINT lclavicle
				{
					OFFSET 0.071702 0.114000 -0.018898
					CHANNELS 3 Zrotation Yrotation Xrotation
					JOINT lshoulder
					{
						OFFSET 0.122921 0.045205 -0.019046
						CHANNELS 3 Zrotation Yrotation Xrotation
						JOINT lelbow
						{
							OFFSET 0.255332 -0.015649 -0.022946
							CHANNELS 3 Zrotation Yrotation Xrotation
							JOINT lwrist
							{
								OFFSET 0.265709 0.012698 -0.007375
								CHANNELS 3 Zrotation Yrotation Xrotation
								End Site
								{
									OFFSET 0.000000 0.000000 0.000000
								}
							}
						}
					}
				}
				JOINT rclavicle
				{
					OFFSET -0.082954 0.112472 -0.023707
					CHANNELS 3 Zrotation Yrotation Xrotation
					JOINT rshoulder
					{
						OFFSET -0.113228 0.046853 -0.008472
						CHANNELS 3 Zrotation Yrotation Xrotation
						JOINT relbow
						{
							OFFSET -0.260127 -0.014369 -0.031269
							CHANNELS 3 Zrotation Yrotation Xrotation
							JOINT rwrist
							{
								OFFSET -0.269108 0.006794 -0.006027
								CHANNELS 3 Zrotation Yrotation Xrotation
								End Site
								{
									OFFSET 0.000000 0.000000 0.000000
								}
							}
						}
					}
				}
			}
		}
	}
}
MOTION
Frames: 13
Frame Time: 0.033333
-0.086808 0.591640 1.005487 168.353660 1.572921 83.706324 9.482744 5.749996 6.841989 -1.926391 -4.817184 13.862827 -3.578408 17.513026 -15.179918 0.000000 -0.000000 0.000000 -6.183555 -4.334450 4.990916 -0.298234 12.092011 12.268740 7.928084 -9.188223 -11.432326 0.000000 -0.000000 0.000000 2.041656 0.537458 4.708883 -1.544369 -1.594417 0.761261 -1.427345 0.095804 -1.357418 9.657527 -15.309525 -13.582463 6.991347 -16.196286 5.155933 -10.581350 -9.718744 -6.009959 -7.062615 -12.149963 -14.135093 28.851774 -30.479203 -24.225004 17.159471 -15.047438 11.948073 2.962067 15.253826 -6.121805 -3.284934 9.688786 -22.276966 -16.243575 8.186788 -30.619531 -11.282735 5.101515 2.916466 
-0.077918 0.588741 1.004344 167.371343 1.385067 84.126752 9.912740 6.203996 6.775347 -1.972203 -4.084975 13.618024 -3.946753 16.929981 -14.772530 0.000000 -0.000000 0.000000 -6.017925 -4.263574 4.236599 -0.191046 11.385587 12.441279 7.232718 -7.866402 -11.707813 0.000000 -0.000000 0.000000 1.340128 0.330465 4.670256 -0.842717 -1.683958 1.182265 -1.519062 -0.047627 -0.828280 9.484264 -16.805475 -13.958548 7.034236 -20.563070 3.256000 -11.961007 -5.085108 -5.936537 -10.657462 -10.627978 -12.360770 29.750811 -30.739932 -24.649192 17.965216 -12.218821 6.933084 6.722193 12.222349 -6.335211 0.763870 11.181089 -22.460247 -18.440592 5.992811 -36.550571 -14.528640 2.983838 -1.843991 
-0.071257 0.584657 1.002371 166.440414 1.220407 84.556982 10.043789 6.375986 6.868664 -1.789341 -3.456770 13.034053 -3.961951 16.616746 -14.580940 0.000000 -0.000000 0.000000 -5.850034 -3.640432 3.350663 0.136160 11.418514 12.939809 6.903669 -7.345534 -12.283199 0.000000 -0.000000 0.000000 0.795961 -0.050370 4.277585 -0.149213 -1.818817 2.021115 -1.649104 -0.316561 -0.130613 10.168922 -18.501257 -14.963173 5.803453 -23.635772 3.049555 -13.636783 -0.997558 -4.579432 -15.301052 -9.637479 -11.062791 32.574874 -33.498002 -25.462868 18.587020 -10.699358 4.348965 10.868294 10.218339 -6.409895 5.380708 12.737843 -21.047358 -22.306297 7.481963 -39.940496 -16.713515 2.603219 -2.415675 
-0.066514 0.580700 0.999886 165.488072 1.018488 84.896933 10.036885 6.380971 7.020512 -1.656359 -2.746484 12.538473 -3.774406 16.394018 -14.676296 0.000000 -0.000000 0.000000 -5.096264 -2.371806 2.934849 -0.589251 11.916964 12.816406 6.187740 -8.072314 -12.927145 0.000000 -0.000000 0.000000 0.506673 -0.443325 3.956924 0.316438 -1.877906 2.911082 -1.876085 -0.608234 0.325888 10.558854 -19.756292 -15.303859 4.992036 -25.287294 3.037132 -15.819193 1.971707 -2.903986 -20.134458 -8.726193 -9.204818 35.313633 -37.496648 -25.405828 20.128616 -10.389923 2.124657 14.794796 8.812608 -5.083903 11.559127 13.325248 -17.177924 -27.199302 12.351016 -38.957163 -18.167118 3.898421 -1.532760 
-0.062929 0.576782 0.996811 164.718217 0.981685 85.198418 10.208075 6.162597 6.975312 -1.597643 -1.742441 12.357763 -3.427006 16.143473 -14.690774 0.000000 -0.000000 0.000000 -4.616477 -1.567462 2.281563 -0.866675 11.382277 13.132078 5.487192 -7.652014 -13.610902 0.000000 -0.000000 0.000000 0.374142 -0.744068 3.967308 0.787840 -1.917077 3.550083 -1.971431 -0.810840 0.376211 10.326145 -20.446578 -15.323475 4.415429 -26.527440 3.581308 -17.657896 4.232691 -1.375120 -26.439799 -8.672287 -6.656111 37.291409 -42.352304 -23.840941 18.547902 -9.595010 -0.764477 17.938834 7.193965 -3.261728 18.551446 13.065493 -11.952009 -31.305055 19.773100 -34.713672 -18.054294 5.580141 0.285791 
-0.060792 0.572474 0.994867 164.251664 0.817298 85.478693 10.301144 5.913309 6.613313 -1.755090 -0.268965 12.571972 -3.181346 15.653865 -14.830270 0.000000 -0.000000 0.000000 -4.555491 -1.032321 1.949322 -1.049524 10.604847 12.934304 5.028559 -6.913016 -13.997602 0.000000 -0.000000 0.000000 0.271246 -0.824928 4.244215 1.033722 -2.220870 3.743270 -2.178557 -1.316583 0.423379 10.348416 -20.436747 -15.180399 3.983205 -26.905681 4.308509 -19.731029 5.792875 0.038921 -32.051834 -9.056502 -3.982139 36.850151 -46.532806 -20.671006 16.000783 -9.338443 -2.086710 21.002276 5.307053 -2.102132 25.474659 12.399494 -5.663470 -33.215125 29.250470 -28.163896 -15.735806 6.567808 1.650861 
-0.059510 0.567316 0.993616 163.899235 0.638562 85.792197 10.384997 5.419907 5.919448 -1.912906 1.093884 13.214156 -2.934859 14.836784 -14.956766 0.000000 -0.000000 0.000000 -4.744758 -0.646188 1.438006 -1.058885 9.575333 12.786679 4.700826 -5.580946 -14.107660 0.000000 -0.000000 0.000000 0.058680 -0.937916 4.843697 1.214676 -2.456359 3.767212 -2.177738 -1.843697 0.022127 10.127547 -20.073013 -15.095725 3.763011 -26.944555 5.278593 -22.394189 6.045800 0.946571 -36.108767 -9.084775 -1.116355 33.893124 -49.372042 -15.682822 11.553786 -9.709550 -1.201210 23.505354 3.685343 -0.858365 31.109912 11.353031 0.134503 -30.910674 38.369666 -18.727729 -10.495641 7.994010 3.813250 
-0.058644 0.562244 0.993313 163.722494 0.770098 86.111381 10.782054 5.107582 5.140502 -2.000922 1.670875 13.916706 -2.936540 13.756908 -15.107310 0.000000 -0.000000 0.000000 -4.824296 -0.543263 1.090379 -0.816732 8.409840 12.320484 4.470291 -4.280624 -13.883001 0.000000 -0.000000 0.000000 0.042161 -1.119111 4.654743 1.468972 -2.974471 4.708766 -2.109348 -2.298018 -0.372432 9.923193 -19.705077 -15.325341 3.689731 -27.058440 6.093533 -24.981367 5.022032 1.607657 -39.371767 -8.938633 1.464326 30.106341 -50.811244 -10.260070 10.020729 -10.495887 1.909040 25.337415 3.670662 0.942224 34.805773 10.003408 5.157942 -23.168212 45.378186 -5.267192 -5.283649 9.749692 8.014114 
-0.058931 0.556558 0.994198 163.508007 0.914871 86.333632 11.156734 5.049674 4.504040 -2.278719 1.942821 14.425412 -2.983971 13.174298 -15.205279 0.000000 -0.000000 0.000000 -4.703929 -0.372344 0.853274 -0.826131 7.913109 11.807169 4.398475 -3.671311 -13.628896 0.000000 -0.000000 0.000000 0.076619 -1.425991 5.198457 1.402215 -3.305463 4.822755 -1.988918 -2.555666 -0.729330 9.860065 -20.140658 -15.523752 3.976927 -27.181821 6.854208 -26.339486 3.705303 2.977192 -42.905639 -9.187137 3.573193 27.943504 -51.855866 -5.913124 9.901385 -11.219163 4.828108 26.233044 4.807545 2.549116 38.315113 8.706414 9.505973 -12.406122 48.894523 11.079419 -1.626781 10.878143 12.758935 
-0.059737 0.551046 0.994892 163.124908 1.167378 86.610870 11.449877 4.999441 4.072602 -2.277639 2.826830 14.372289 -2.851294 12.771636 -15.064177 0.000000 -0.000000 0.000000 -4.397970 -0.261987 0.189771 -0.998627 7.182935 11.804677 4.378427 -2.736975 -13.286791 0.000000 -0.000000 0.000000 -0.468267 -1.326141 5.573641 1.672212 -3.456168 5.230897 -1.496619 -2.498857 -1.045089 9.910387 -20.543088 -15.870026 4.317800 -27.914668 7.447920 -26.949526 2.514050 3.711058 -46.632738 -9.969008 5.476518 27.672164 -53.067663 -3.704463 9.402127 -11.240790 5.578457 27.471222 5.939899 4.148774 41.371587 7.931222 12.141472 -6.698121 49.693148 21.333009 2.374924 11.323985 16.993773 
-0.061958 0.546488 0.994484 162.570714 1.330774 87.234571 11.346221 4.942241 3.550691 -1.980381 4.077565 13.839735 -2.648065 12.492173 -15.029953 0.000000 -0.000000 0.000000 -4.247289 -0.114141 -1.282856 -1.122748 6.666642 12.557746 4.509455 -1.824699 -13.181139 0.000000 -0.000000 0.000000 -0.994252 -1.080710 5.182945 2.001267 -3.234165 5.796547 -1.233128 -2.442198 -1.067655 9.871614 -20.515435 -16.324329 4.062720 -29.006801 7.974317 -26.776204 2.386290 3.784940 -49.546501 -11.119221 7.273757 28.086648 -55.209922 -2.657492 8.525502 -11.164214 5.118991 28.203540 5.821641 4.953697 43.848998 8.159321 13.215845 -4.725142 49.227356 21.973943 4.966610 10.570601 12.943945 
-0.065111 0.542273 0.994253 162.223158 1.752316 87.485150 11.421342 4.991042 3.382243 -1.528613 4.780636 13.269301 -2.658854 12.237862 -15.297016 0.000000 -0.000000 0.000000 -3.641169 0.047144 -2.557778 -1.587357 6.160384 13.616624 4.807949 -1.160790 -13.165774 0.000000 -0.000000 0.000000 -1.321073 -0.880509 5.169975 2.434983 -2.999109 6.179551 -1.057447 -2.459339 -1.086337 9.691844 -20.029163 -16.034120 3.292345 -29.443961 8.646880 -26.756996 2.588952 3.486296 -50.607817 -11.679674 8.575196 30.185451 -58.114032 -3.316633 7.923109 -11.299198 5.478561 29.130106 4.967984 4.846138 45.102133 8.420302 12.329525 -7.444937 48.005167 14.770779 7.609727 9.655304 5.253046 
-0.070262 0.539233 0.994054 162.677804 1.969442 87.212136 11.211342 4.784422 3.671633 -1.150567 4.739372 12.531102 -2.566676 12.076551 -15.574139 0.000000 -0.000000 0.000000 -3.339150 0.291964 -2.835968 -2.055369 5.593951 14.294695 5.021954 -1.342774 -13.128649 0.000000 -0.000000 0.000000 -1.605080 -0.904307 5.537342 2.513393 -2.965538 6.480050 -1.053170 -2.620558 -1.133060 9.094277 -19.809126 -14.663180 2.399966 -29.156484 9.308433 -26.309965 2.835949 3.400020 -50.075238 -12.093542 9.323662 33.285328 -60.854560 -5.720025 7.926859 -11.675394 6.053049 29.293503 4.713526 4.418336 44.000620 8.841348 10.786708 -9.510487 46.044963 5.139829 7.993644 10.230378 -5.094387 
